<svg width="14" height="12" viewBox="0 0 14 12" fill="none" xmlns="http://www.w3.org/2000/svg">
<path d="M12.9062 6.24219L8.09375 10.8359C7.82031 11.082 7.41016 11.082 7.16406 10.8086C6.91797 10.5352 6.91797 10.125 7.19141 9.87891L10.8281 6.40625H1.53125C1.14844 6.40625 0.875 6.13281 0.875 5.75C0.875 5.39453 1.14844 5.09375 1.53125 5.09375H10.8281L7.19141 1.64844C6.91797 1.40234 6.91797 0.964844 7.16406 0.71875C7.41016 0.445312 7.84766 0.445312 8.09375 0.691406L12.9062 5.28516C13.043 5.42188 13.125 5.58594 13.125 5.75C13.125 5.94141 13.043 6.10547 12.9062 6.24219Z" fill="white"/>
</svg>
