<svg width="31" height="26" viewBox="0 0 31 26" fill="none" xmlns="http://www.w3.org/2000/svg">
<g clip-path="url(#clip0_2_1551)">
<path d="M12.8673 12.9492H17.1923C18.3548 12.9492 19.2298 12.0536 19.0423 11.0608L18.6673 9.12921C18.3673 7.59688 16.8298 6.47461 15.0298 6.47461C13.2298 6.47461 11.6923 7.59688 11.3923 9.14L11.0173 11.0716C10.8298 12.0536 11.7048 12.9492 12.8673 12.9492ZM13.8548 9.48531C13.9548 8.98892 14.4423 8.63282 15.0298 8.63282C15.6173 8.63282 16.1048 8.98892 16.2048 9.48531L16.4548 10.791H13.6048L13.8548 9.48531Z" fill="#2A9D8F"/>
<path d="M2.10479 11.9888C1.94229 12.2694 1.87979 12.6039 1.97979 12.9384C2.17979 13.683 2.92979 14.0499 3.89229 14.0176C3.89229 14.0176 5.75479 14.0176 6.32979 14.0176C7.36729 14.0176 8.21729 13.3917 8.21729 12.6255C8.21729 12.4744 8.17979 12.3341 8.12979 12.1939C8.11729 12.1615 8.11728 12.1399 8.14228 12.1075C8.25478 11.9349 8.31729 11.7406 8.31729 11.5356C8.31729 11.2011 8.14229 10.8881 7.86729 10.6507C7.82979 10.6184 7.82979 10.586 7.84229 10.5428C7.92979 10.327 7.92979 10.0788 7.85479 9.84142C7.65479 9.3774 7.16728 9.06446 6.61729 9.04288C6.57979 9.04288 6.55478 9.03209 6.52979 9.01051C6.31729 8.78389 5.92978 8.63282 5.49228 8.63282C5.11728 8.63282 4.77979 8.74073 4.55478 8.91339C4.51728 8.94576 4.47978 8.94576 4.44229 8.93497C4.26729 8.87022 4.06729 8.83785 3.86729 8.83785C3.05479 8.83785 2.39229 9.36661 2.31729 10.0464C2.31729 10.068 2.30479 10.0896 2.27979 10.1112C1.91729 10.3918 1.70479 10.8126 1.76729 11.2443C1.80479 11.4817 1.91729 11.7083 2.07979 11.8917C2.11729 11.9133 2.11729 11.9565 2.10479 11.9888Z" fill="#2A9D8F"/>
<path d="M20.3298 14.7298C18.8673 14.1686 17.0673 13.7586 15.0298 13.7586C12.9923 13.7586 11.1923 14.1794 9.72979 14.7298C8.37979 15.2477 7.52979 16.4132 7.52979 17.6865V19.4239H22.5298V17.6865C22.5298 16.4132 21.6798 15.2477 20.3298 14.7298ZM10.1173 17.2657C10.2298 17.0175 10.4548 16.8124 10.7298 16.7045C12.1048 16.1758 13.5548 15.9168 15.0173 15.9168C16.4923 15.9168 17.9298 16.1866 19.3048 16.7045C19.5923 16.8124 19.8048 17.0175 19.9173 17.2657H10.1173Z" fill="#2A9D8F"/>
<path d="M1.55479 15.7333C0.629785 16.0786 0.0297852 16.8556 0.0297852 17.7297V19.4239H5.65479V17.6865C5.65479 16.7909 5.94229 15.9492 6.44229 15.2154C5.97979 15.1506 5.51729 15.1074 5.02979 15.1074C3.79229 15.1074 2.61729 15.3341 1.55479 15.7333Z" fill="#2A9D8F"/>
<path d="M28.5048 15.7333C27.4423 15.3341 26.2673 15.1074 25.0298 15.1074C24.5423 15.1074 24.0798 15.1506 23.6173 15.2154C24.1173 15.9492 24.4048 16.7909 24.4048 17.6865V19.4239H30.0298V17.7297C30.0298 16.8556 29.4298 16.0786 28.5048 15.7333Z" fill="#2A9D8F"/>
<path d="M27.5298 11.8701V11.3306C27.5298 10.1436 26.4048 9.17237 25.0298 9.17237H22.5298C22.0048 9.17237 21.7173 9.69034 22.0423 10.0464L22.9173 10.7263C22.6798 11.0608 22.5298 11.4493 22.5298 11.8701C22.5298 13.0571 23.6548 14.0283 25.0298 14.0283C26.4048 14.0283 27.5298 13.0571 27.5298 11.8701Z" fill="#2A9D8F"/>
</g>
<defs>
<clipPath id="clip0_2_1551">
<rect width="30" height="25.8985" fill="white" transform="translate(0.0297852)"/>
</clipPath>
</defs>
</svg>
