<svg width="45" height="30" viewBox="0 0 45 30" fill="none" xmlns="http://www.w3.org/2000/svg">
<path d="M4.5 1.84375C2.6543 1.84375 1.21875 3.34766 1.21875 5.125V7.10742L15.1641 18.3867C16.5996 19.4805 18.582 19.4805 20.0176 18.3867L22.3418 16.4727C22.2051 17.0195 22.0684 17.5664 22 18.1133L20.7012 19.207C18.8555 20.7109 16.3262 20.7109 14.4805 19.207L1.21875 8.47461V22.625C1.21875 24.4707 2.6543 25.9062 4.5 25.9062H23.9141C24.1875 26.3164 24.4609 26.6582 24.7344 27H4.5C2.03906 27 0.125 25.0859 0.125 22.625V5.125C0.125 2.73242 2.03906 0.75 4.5 0.75H30.75C33.1426 0.75 35.125 2.73242 35.125 5.125V7.38086C34.7148 7.38086 34.373 7.3125 34.0312 7.3125V5.125C34.0312 3.34766 32.5273 1.84375 30.75 1.84375H4.5ZM34.0312 10.5938C30.8867 10.5938 28.0156 12.3027 26.4434 14.9688C24.8711 17.7031 24.8711 21.0527 26.4434 23.7188C28.0156 26.4531 30.8867 28.0938 34.0312 28.0938C37.1074 28.0938 39.9785 26.4531 41.5508 23.7188C43.123 21.0527 43.123 17.7031 41.5508 14.9688C39.9785 12.3027 37.1074 10.5938 34.0312 10.5938ZM34.0312 29.1875C30.4766 29.1875 27.2637 27.3418 25.4863 24.2656C23.709 21.2578 23.709 17.498 25.4863 14.4219C27.2637 11.4141 30.4766 9.5 34.0312 9.5C37.5176 9.5 40.7305 11.4141 42.5078 14.4219C44.2852 17.498 44.2852 21.2578 42.5078 24.2656C40.7305 27.3418 37.5176 29.1875 34.0312 29.1875ZM38.748 16.2676C38.9531 16.4727 38.9531 16.8145 38.748 17.0195L33.2793 22.4883C33.0742 22.6934 32.7324 22.6934 32.5273 22.4883L29.2461 19.207C29.041 19.002 29.041 18.6602 29.2461 18.4551C29.4512 18.25 29.793 18.25 29.998 18.4551L32.9375 21.3262L37.9961 16.2676C38.2012 16.0625 38.543 16.0625 38.748 16.2676Z" fill="#B9BDC7"/>
</svg>
