<svg width="31" height="26" viewBox="0 0 31 26" fill="none" xmlns="http://www.w3.org/2000/svg">
<path d="M15.3073 21.4256C15.0823 21.6198 14.6823 21.6522 14.4198 21.4256C14.1948 21.2314 14.1573 20.886 14.4198 20.6594L18.6573 17.0013L16.8948 15.4797L12.6573 19.1379C12.4198 19.3537 12.0198 19.3429 11.7698 19.1379C11.5073 18.9113 11.5448 18.566 11.7698 18.3717L16.0073 14.7136L14.2448 13.192L10.0073 16.8502C9.78234 17.0444 9.38234 17.0768 9.11984 16.8502C8.88234 16.6452 8.88234 16.2998 9.11984 16.084L13.3573 12.4259L11.5823 10.9043L7.34484 14.5625C7.11984 14.7567 6.71984 14.7891 6.45734 14.5625C6.21984 14.3467 6.21984 14.0121 6.45734 13.7963L11.9323 9.06985L14.2698 11.077C15.4573 12.1021 17.5073 12.0913 18.6948 11.077C19.9198 10.0195 19.9198 8.31447 18.6948 7.25695L16.3698 5.24981L16.7198 4.94766C17.6948 4.10596 19.2823 4.10596 20.2573 4.94766L25.5573 9.52307C26.5323 10.3648 26.5323 11.7352 25.5573 12.5769L15.3073 21.4256ZM27.3198 14.1093C29.2698 12.4259 29.2698 9.69573 27.3198 8.00153L22.0198 3.42613C20.0698 1.74272 16.9073 1.74272 14.9448 3.42613L14.5948 3.72828L14.2448 3.42613C12.2948 1.74272 9.13234 1.74272 7.16984 3.42613L2.74484 7.24616C0.969842 8.77849 0.807341 11.1633 2.24484 12.8467L4.05734 11.282C3.56984 10.4727 3.73234 9.44753 4.51984 8.7677L8.94484 4.94766C9.91984 4.10596 11.5073 4.10596 12.4823 4.94766L16.9323 8.78928C17.1573 8.98352 17.1948 9.32883 16.9323 9.55544C16.6698 9.78206 16.2698 9.74968 16.0448 9.55544L11.9323 6.01598L4.68234 12.264C3.45734 13.3107 3.45734 15.0265 4.68234 16.084C5.16984 16.5049 5.79484 16.7639 6.45734 16.8394C6.54484 17.4005 6.83234 17.9401 7.33234 18.3717C7.83234 18.8034 8.45734 19.0516 9.10734 19.1271C9.19484 19.6882 9.48234 20.2278 9.98234 20.6594C10.4823 21.0911 11.1073 21.3393 11.7573 21.4148C11.8448 21.9975 12.1448 22.5263 12.6323 22.9471C13.2198 23.4543 14.0073 23.7349 14.8448 23.7349C15.6823 23.7349 16.4698 23.4543 17.0573 22.9471L27.3198 14.1093Z" fill="#2A9D8F"/>
</svg>
