<svg width="31" height="26" viewBox="0 0 31 26" fill="none" xmlns="http://www.w3.org/2000/svg">
<path d="M11.2798 22.6612C11.2798 23.2547 11.8423 23.7403 12.5298 23.7403H17.5298C18.2173 23.7403 18.7798 23.2547 18.7798 22.6612V21.5821H11.2798V22.6612ZM15.0298 2.1582C10.2048 2.1582 6.27979 5.54659 6.27979 9.71194C6.27979 12.2802 7.76729 14.5355 10.0298 15.906V18.3448C10.0298 18.9383 10.5923 19.4239 11.2798 19.4239H18.7798C19.4673 19.4239 20.0298 18.9383 20.0298 18.3448V15.906C22.2923 14.5355 23.7798 12.2802 23.7798 9.71194C23.7798 5.54659 19.8548 2.1582 15.0298 2.1582ZM18.5923 14.1363L17.5298 14.7837V17.2657H12.5298V14.7837L11.4673 14.1363C9.77978 13.1219 8.77979 11.4709 8.77979 9.71194C8.77979 6.73361 11.5798 4.31641 15.0298 4.31641C18.4798 4.31641 21.2798 6.73361 21.2798 9.71194C21.2798 11.4709 20.2798 13.1219 18.5923 14.1363Z" fill="#2A9D8F"/>
</svg>
