<svg width="27" height="36" viewBox="0 0 27 36" fill="none" xmlns="http://www.w3.org/2000/svg">
<path d="M25.5312 13.5C25.5312 6.86914 20.1309 1.46875 13.5 1.46875C6.80078 1.46875 1.46875 6.86914 1.46875 13.5C1.46875 14.7988 1.87891 16.4395 2.63086 18.2852C3.45117 20.1309 4.47656 22.1133 5.70703 24.0273C8.09961 27.9238 10.9707 31.6836 12.6797 33.8711C13.0898 34.3496 13.8418 34.3496 14.252 33.8711C15.9609 31.6836 18.832 27.9238 21.2246 24.0273C22.4551 22.1133 23.4805 20.1309 24.3008 18.2852C25.0527 16.4395 25.5312 14.7988 25.5312 13.5ZM26.625 13.5C26.625 19.5156 18.627 30.1113 15.0723 34.5547C14.252 35.5801 12.6797 35.5801 11.8594 34.5547C8.37305 30.1113 0.375 19.5156 0.375 13.5C0.375 6.25391 6.25391 0.375 13.5 0.375C20.7461 0.375 26.625 6.25391 26.625 13.5ZM13.5 8.03125C15.4141 8.03125 17.1914 9.125 18.2168 10.7656C19.1738 12.4746 19.1738 14.5938 18.2168 16.2344C17.1914 17.9434 15.4141 18.9688 13.5 18.9688C11.5176 18.9688 9.74023 17.9434 8.71484 16.2344C7.75781 14.5938 7.75781 12.4746 8.71484 10.7656C9.74023 9.125 11.5176 8.03125 13.5 8.03125ZM17.875 13.5C17.875 11.9961 16.9863 10.5605 15.6875 9.74023C14.3203 8.98828 12.6113 8.98828 11.3125 9.74023C9.94531 10.5605 9.125 11.9961 9.125 13.5C9.125 15.0723 9.94531 16.5078 11.3125 17.3281C12.6113 18.0801 14.3203 18.0801 15.6875 17.3281C16.9863 16.5078 17.875 15.0723 17.875 13.5Z" fill="#B9BDC7"/>
</svg>
